<svg xmlns="http://www.w3.org/2000/svg" xmlns:xlink="http://www.w3.org/1999/xlink" id="Layer_1" x="0" y="0" enable-background="new -51.9 -699.1 483.8 478.9" version="1.1" viewBox="-51.9 -699.1 483.8 478.9" xml:space="preserve"><g><polygon fill="#94A3AB" points="17.2 -340 -51.9 -459.7 17.2 -579.4 155.5 -579.4 224.6 -459.7 155.5 -340"/><polygon fill="#00B29F" points="224.6 -459.7 155.5 -579.4 224.6 -699.1 362.8 -699.1 432 -579.4 362.8 -459.7"/><polygon fill="#5AAAFA" points="224.6 -220.3 155.5 -340 224.6 -459.7 362.8 -459.7 432 -340 362.8 -220.3"/><circle cx="224.6" cy="-459.7" r="144" fill="none" stroke="#20343E" stroke-miterlimit="10" stroke-width="20"/><line x1="224.6" x2="155.5" y1="-459.7" y2="-579.4" fill="none" stroke="#20343E" stroke-miterlimit="10" stroke-width="20"/><line x1="224.6" x2="362.8" y1="-459.7" y2="-459.7" fill="none" stroke="#20343E" stroke-miterlimit="10" stroke-width="20"/><line x1="224.6" x2="155.5" y1="-459.7" y2="-340" fill="none" stroke="#20343E" stroke-miterlimit="10" stroke-width="20"/></g><g><g><path fill="#20343E" d="M169.3-556.3l167.3,96.6l-167.3,96.6V-556.3 M149.3-591v262.5l227.3-131.3L149.3-591L149.3-591z"/></g></g></svg>